<svg width="40" height="40" viewBox="0 0 40 40" fill="none" xmlns="http://www.w3.org/2000/svg">
<circle cx="20" cy="20" r="20" fill="#0063E3"/>
<path d="M4.66796 32.8432V25.7476L4.64941 25.7465L4.66796 25.4137V25.3334L4.67246 25.3331L4.68651 25.0809C5.36548 25.1188 6.02453 25.1496 6.66429 25.1737L13.0013 24.6668C13.0013 24.6668 15.6746 24.9722 19.0469 24.5961C23.2258 23.8845 25.5643 22.6928 27.0536 21.5771C27.7316 21.0692 28.2412 20.5716 28.6768 20.1265C28.7463 20.0555 28.8146 19.985 28.8819 19.9156L28.8828 19.9147C29.2285 19.5581 29.5492 19.2273 29.8758 18.9807C30.2826 18.6736 30.7241 18.4752 31.2859 18.4756C31.8321 18.476 32.4568 18.6646 33.2371 19.0516C35.7332 20.2894 37.9497 21.7441 39.7618 23.0961C38.2737 32.6716 29.9927 40 20 40C13.8435 40 8.33674 37.2183 4.66796 32.8432Z" fill="#EAF3FF"/>
<path d="M19.8159 39.9992C8.85498 39.9003 0 30.9843 0 20C0 19.6277 0.0101749 19.2577 0.0302618 18.8904C0.384592 18.5246 0.735235 18.148 1.08061 17.7604C3.08348 15.5127 4.65898 13.9054 5.94897 12.8267C7.23272 11.7532 8.2703 11.1711 9.19666 11.032C10.1523 10.8886 10.9322 11.2234 11.6669 11.8308C12.3471 12.3932 13.0207 13.2167 13.7895 14.1565L13.9207 14.317C15.5814 16.3454 17.8013 18.9984 21.7493 21.3365C25.5351 23.5785 30.9294 25.5418 38.9684 26.3575C36.3305 34.2313 28.9273 39.9203 20.1841 39.9992H19.8159Z" fill="#A6C7F5"/>
</svg>
